# xmcd CD database file
#
# Track frame offsets:
#	150
#	13031
#	32720
#
# Disc length: 595 seconds
#
# Revision: 0
# Processed by: cddbd v1.5.2PL0 Copyright (c) Steve Scherf et al.
# Submitted via: CDex 1.70beta2
#
DISCID=1a025103
DTITLE=Sarah Carlier - Let's Believe
DYEAR=2009
DGENRE=Jazz
TTITLE0=Sarah Carlier - He said
TTITLE1=Sarah Carlier - Since
TTITLE2=Sarah Carlier - Let's Believe
EXTD=YEAR: 2009
EXTT0=
EXTT1=
EXTT2=
PLAYORDER=
